<svg width="16" height="16" viewBox="0 0 16 16" fill="none" xmlns="http://www.w3.org/2000/svg">
<path fill-rule="evenodd" clip-rule="evenodd" d="M5.75977 0.96C5.75977 0.429807 6.18958 0 6.71977 0C10.2544 0 13.1198 2.86538 13.1198 6.4C13.1198 6.93019 12.69 7.36 12.1598 7.36C11.6296 7.36 11.1998 6.93019 11.1998 6.4C11.1998 3.92576 9.19401 1.92 6.71977 1.92C6.18958 1.92 5.75977 1.49019 5.75977 0.96Z" fill="#FF7FBF"/>
<path fill-rule="evenodd" clip-rule="evenodd" d="M10.2399 15.04C10.2399 15.5702 9.81007 16 9.27988 16C5.74526 16 2.87988 13.1346 2.87988 9.60001C2.87988 9.06982 3.30969 8.64001 3.83988 8.64001C4.37007 8.64001 4.79988 9.06982 4.79988 9.60001C4.79988 12.0742 6.80564 14.08 9.27988 14.08C9.81007 14.08 10.2399 14.5098 10.2399 15.04Z" fill="#FF7FBF"/>
<path fill-rule="evenodd" clip-rule="evenodd" d="M0.96 10.24C0.429807 10.24 2.31755e-08 9.81019 0 9.28C-1.54503e-07 5.74538 2.86538 2.88 6.4 2.88C6.93019 2.88 7.36 3.30981 7.36 3.84C7.36 4.37019 6.93019 4.8 6.4 4.8C3.92576 4.8 1.92 6.80576 1.92 9.28C1.92 9.81019 1.49019 10.24 0.96 10.24Z" fill="#FF7FBF"/>
<path fill-rule="evenodd" clip-rule="evenodd" d="M15.0396 5.76001C15.5698 5.76001 15.9996 6.18982 15.9996 6.72001C15.9996 10.2546 13.1342 13.12 9.59965 13.12C9.06946 13.12 8.63965 12.6902 8.63965 12.16C8.63965 11.6298 9.06946 11.2 9.59965 11.2C12.0738 11.2 14.0796 9.19425 14.0796 6.72001C14.0796 6.18982 14.5094 5.76001 15.0396 5.76001Z" fill="#FF7FBF"/>
</svg>
