<svg width="24" height="25" viewBox="0 0 24 25" fill="none" xmlns="http://www.w3.org/2000/svg">
<g clip-path="url(#clip0_29_5)">
<path d="M23.4891 14.9872C23.1363 16.7508 20.3293 18.6808 17.1055 19.0548C15.4244 19.2497 13.7693 19.4289 12.0043 19.3502C9.11791 19.2217 6.84033 18.6808 6.84033 18.6808C6.84033 18.9538 6.85766 19.2138 6.89231 19.4569C7.26757 22.2247 9.71689 22.3905 12.037 22.4678C14.3788 22.5457 16.4639 21.9068 16.4639 21.9068L16.5602 23.9638C16.5602 23.9638 14.9222 24.8185 12.0043 24.9756C10.3953 25.0616 8.39748 24.9363 6.07056 24.3379C1.02385 23.04 0.155934 17.813 0.0231328 12.5093C-0.0173451 10.9346 0.00760707 9.44976 0.00760707 8.2079C0.00760707 2.78463 3.66462 1.19499 3.66462 1.19499C5.50858 0.372156 8.67265 0.0261304 11.962 0H12.0428C15.3322 0.0261304 18.4984 0.372156 20.3422 1.19499C20.3422 1.19499 23.9991 2.78463 23.9991 8.2079C23.9991 8.2079 24.045 12.2092 23.4891 14.9872Z" fill="#FF7FBF"/>
<path d="M19.6855 8.62863V15.1953H17.008V8.82165C17.008 7.47809 16.4262 6.79614 15.2625 6.79614C13.9758 6.79614 13.3309 7.6051 13.3309 9.20471V12.6934H10.6692V9.20471C10.6692 7.6051 10.0242 6.79614 8.7375 6.79614C7.57376 6.79614 6.99196 7.47809 6.99196 8.82165V15.1953H4.31445V8.62863C4.31445 7.28656 4.66614 6.22006 5.37256 5.43103C6.10103 4.642 7.05503 4.23752 8.23928 4.23752C9.60943 4.23752 10.647 4.74922 11.3331 5.77275L12 6.85904L12.667 5.77275C13.3529 4.74922 14.3905 4.23752 15.7608 4.23752C16.9449 4.23752 17.8989 4.642 18.6275 5.43103C19.3338 6.22006 19.6855 7.28656 19.6855 8.62863Z" fill="#FFF1F8"/>
</g>
<defs>
<clipPath id="clip0_29_5">
<rect width="24" height="25" fill="white"/>
</clipPath>
</defs>
</svg>
